<?xml version="1.0" encoding="utf-8"?>
<!-- Generator: Adobe Illustrator 21.1.0, SVG Export Plug-In . SVG Version: 6.00 Build 0)  -->
<svg version="1.1" id="Layer_1" xmlns="http://www.w3.org/2000/svg" xmlns:xlink="http://www.w3.org/1999/xlink" x="0px" y="0px"
	 viewBox="0 0 200 200" style="enable-background:new 0 0 200 200;" xml:space="preserve">
<style type="text/css">
	.st0{fill:#ACC1D1;}
	.st1{fill:#FAFAFA;}
</style>
<title>fb</title>
<g>
	<circle class="st0" cx="100" cy="93" r="22.5"/>
	<path class="st1" d="M93.8,93.1c0-1.4,0-2.7,0-3.9c0-0.7,0.4-0.7,0.9-0.7c1.7,0,1.7,0,1.8-1.8c0-0.9,0-1.8,0.1-2.7
		c0.5-2.6,2.2-3.8,5.3-4c1.1,0,2.2,0,3.2,0c0.6,0,0.9,0.2,0.9,0.8c0,1.2,0,2.4,0,3.8H104c-1.6,0-1.8,0.3-1.8,1.8c0,0.6,0,1.2,0,2h4
		l-0.6,4.6h-3.5c0,0.5,0,0.9,0,1.3c0,3.5,0,7.1,0,10.6c0,0.9-0.3,1.2-1.2,1.2c-0.9-0.1-2.2,0-3.3,0s-1.2-0.3-1.2-1.1
		c0-3.5,0-6.9,0-10.4c0-1.5,0-1.5-1.5-1.5L93.8,93.1z"/>
</g>
</svg>
