<?xml version="1.0" encoding="utf-8"?>
<!-- Generator: Adobe Illustrator 16.0.0, SVG Export Plug-In . SVG Version: 6.00 Build 0)  -->
<!DOCTYPE svg PUBLIC "-//W3C//DTD SVG 1.1//EN" "http://www.w3.org/Graphics/SVG/1.1/DTD/svg11.dtd">
<svg version="1.1" id="Layer_1" xmlns="http://www.w3.org/2000/svg" xmlns:xlink="http://www.w3.org/1999/xlink" x="0px" y="0px"
	 width="96.5px" height="97.5px" viewBox="5 0 96.5 97.5" enable-background="new 5 0 96.5 97.5" xml:space="preserve">
<title>fb</title>
<g display="none">
	<circle display="inline" fill="#ACC1D1" cx="53" cy="49.1" r="45"/>
	<path display="inline" fill="#FAFAFA" d="M40.6,49.301c0-2.801,0-5.4,0-7.801c0-1.399,0.8-1.399,1.8-1.399c3.4,0,3.4,0,3.6-3.601
		c0-1.8,0-3.6,0.2-5.399c1-5.2,4.4-7.601,10.6-8c2.2,0,4.4,0,6.4,0c1.2,0,1.8,0.399,1.8,1.6c0,2.4,0,4.8,0,7.601h-4
		c-3.2,0-3.6,0.6-3.6,3.6c0,1.2,0,2.4,0,4h8l-1.2,9.2h-7c0,1,0,1.8,0,2.6c0,7,0,14.2,0,21.2c0,1.8-0.601,2.4-2.4,2.4
		c-1.8-0.2-4.4,0-6.6,0c-2.2,0-2.4-0.601-2.4-2.2c0-7,0-13.8,0-20.8c0-3,0-3-3-3H40.6z"/>
</g>
<title>ig</title>
<g>
	<circle fill="#ACC1D1" cx="53" cy="48.6" r="45"/>
	<path fill="#FAFAFA" d="M53,70.6h-6.4c-2,0-4.2-0.2-6.2-0.6c-4.8-1-8.4-4.801-9-9.601C31,58.199,31,56,31,53.8
		c0-4.2,0-8.601,0-12.8c0-2,0.2-4,0.8-6c1-4.2,4.6-7.601,9-8.2c1.6-0.4,3.4-0.4,5-0.4c4.8,0,9.8,0,14.601,0c2,0,3.8,0.2,5.8,0.601
		c4.399,1,7.6,4.6,8.399,9c0.4,2,0.601,4,0.4,6c0,4.199,0,8.399,0,12.6c0,2-0.2,4.2-0.6,6.2c-0.801,4.6-4.601,8.2-9.2,9
		c-2,0.399-3.8,0.6-5.8,0.399L53,70.6z M34.8,48.6L34.8,48.6c0,1.6,0,3.2,0,4.8c0,2.2,0,4.4,0.4,6.601c0.4,3,2.6,5.399,5.6,6.199
		c1.4,0.4,2.8,0.601,4.2,0.4c5.2,0,10.4,0,15.8,0c1.2,0,2.4-0.2,3.4-0.4c3-0.399,5.6-2.6,6.2-5.6c0.399-1.4,0.6-2.8,0.399-4.4
		c0-5.199,0-10.199,0-15.399c0-1.4-0.2-2.601-0.399-4c-0.4-2.2-1.601-4-3.4-5.2c-1.4-0.8-3-1.2-4.8-1.2c-2.4,0-5,0-7.4,0
		c-3.2,0-6.4,0-9.8,0c-1.2,0-2.6,0.2-3.8,0.4c-2.4,0.399-4.4,2-5.4,4.399c-0.6,1.2-0.8,2.601-0.8,4C34.8,42.4,34.8,45.6,34.8,48.6z"
		/>
	<path fill="#FAFAFA" d="M41.8,48.6c0-6.2,5-11.2,11.2-11.2s11.2,5,11.2,11.2s-5,11.2-11.2,11.2S41.8,54.8,41.8,48.6z M45.6,48.6
		c0,4,3.4,7.4,7.4,7.4s7.4-3.4,7.4-7.4s-3.4-7.4-7.4-7.4l0,0C49,41.199,45.6,44.4,45.6,48.6L45.6,48.6L45.6,48.6z"/>
	<path fill="#FAFAFA" d="M64.8,39.4c-1.399,0-2.6-1.2-2.6-2.6c0-1.4,1.2-2.601,2.6-2.601c1.4,0,2.601,1.2,2.601,2.601
		C67.4,38.199,66.2,39.4,64.8,39.4z"/>
</g>
</svg>
