<?xml version="1.0" encoding="utf-8"?>
<!-- Generator: Adobe Illustrator 16.0.0, SVG Export Plug-In . SVG Version: 6.00 Build 0)  -->
<!DOCTYPE svg PUBLIC "-//W3C//DTD SVG 1.1//EN" "http://www.w3.org/Graphics/SVG/1.1/DTD/svg11.dtd">
<svg version="1.1" id="Layer_1" xmlns="http://www.w3.org/2000/svg" xmlns:xlink="http://www.w3.org/1999/xlink" x="0px" y="0px"
	 width="96.5px" height="97.5px" viewBox="5 0 96.5 97.5" enable-background="new 5 0 96.5 97.5" xml:space="preserve">
<title>fb</title>
<g>
	<circle fill="#ACC1D1" cx="53" cy="49.1" r="45"/>
	<path fill="#FAFAFA" d="M40.6,49.301c0-2.801,0-5.4,0-7.801c0-1.399,0.8-1.399,1.8-1.399c3.4,0,3.4,0,3.6-3.601
		c0-1.8,0-3.6,0.2-5.399c1-5.2,4.4-7.601,10.6-8c2.2,0,4.4,0,6.4,0c1.2,0,1.8,0.399,1.8,1.6c0,2.4,0,4.8,0,7.601h-4
		c-3.2,0-3.6,0.6-3.6,3.6c0,1.2,0,2.4,0,4h8l-1.2,9.2h-7c0,1,0,1.8,0,2.6c0,7,0,14.2,0,21.2c0,1.8-0.601,2.4-2.4,2.4
		c-1.8-0.2-4.4,0-6.6,0c-2.2,0-2.4-0.601-2.4-2.2c0-7,0-13.8,0-20.8c0-3,0-3-3-3H40.6z"/>
</g>
</svg>
