<?xml version="1.0" encoding="utf-8"?>
<!-- Generator: Adobe Illustrator 16.0.0, SVG Export Plug-In . SVG Version: 6.00 Build 0)  -->
<!DOCTYPE svg PUBLIC "-//W3C//DTD SVG 1.1//EN" "http://www.w3.org/Graphics/SVG/1.1/DTD/svg11.dtd">
<svg version="1.1" id="Layer_1" xmlns="http://www.w3.org/2000/svg" xmlns:xlink="http://www.w3.org/1999/xlink" x="0px" y="0px"
	 width="45px" height="45px" viewBox="77.5 77.5 45 45" enable-background="new 77.5 77.5 45 45" xml:space="preserve">
<g>
	<g>
		<path fill="#F9FAFA" d="M105.72,91.86c0.333-0.383,0.333-1.005,0-1.388s-0.873-0.383-1.206,0l-3.661,4.214V88.22
			c0-0.542-0.382-0.981-0.853-0.981s-0.854,0.44-0.854,0.981v12.355l-3.661-4.214c-0.333-0.383-0.874-0.383-1.206,0
			c-0.333,0.383-0.333,1.004,0,1.387l4.866,5.602v16.281h-0.021c0.001,0.052,0.004,0.104,0.004,0.156
			c0,0.05-0.004,0.097-0.005,0.146c0.002,0.068,0.005,0.138,0.005,0.208c0,0.033-0.003,0.067-0.003,0.103
			c0,0.045,0.003,0.089,0.003,0.132c0,0.092-0.005,0.182-0.007,0.272c0.003,0.105,0.007,0.21,0.007,0.317
			c0,0.022-0.001,0.045-0.001,0.065c0,0.019,0.001,0.035,0.001,0.052c0,0.171-0.004,0.341-0.012,0.511h1.703
			c0.004-0.319,0.021-0.634,0.052-0.946c-0.002-0.052-0.003-0.102-0.003-0.153c0-0.046,0.002-0.092,0.003-0.138
			c-0.002-0.033-0.003-0.064-0.003-0.097c0-0.045,0.001-0.09,0.002-0.134c-0.001-0.034-0.002-0.067-0.002-0.103
			c0-0.132,0.004-0.262,0.009-0.393h-0.026v-13.336l2.309-2.657c0.333-0.384,0.333-1.004,0-1.389c-0.333-0.383-0.873-0.383-1.206,0
			l-1.103,1.27v-6.059L105.72,91.86z"/>
		<path fill="#F9FAFA" d="M92.325,106.871h2.558c0.471,0,0.853-0.439,0.853-0.98c0-0.543-0.382-0.982-0.853-0.982h-2.558
			c-3.762,0-6.822-3.523-6.822-7.854c0-4.329,3.061-7.852,6.822-7.852c0.47,0,0.853-0.439,0.853-0.982
			c0-4.33,3.061-7.853,6.823-7.853c3.761,0,6.822,3.523,6.822,7.853c0,0.543,0.382,0.982,0.852,0.982
			c3.763,0,6.823,3.523,6.823,7.852c0,4.33-3.061,7.854-6.823,7.854h-2.558c-0.471,0-0.853,0.439-0.853,0.982
			c0,0.541,0.382,0.98,0.853,0.98h2.558c4.703,0,8.528-4.403,8.528-9.816c0-5.096-3.392-9.298-7.714-9.771
			c-0.41-4.975-4.062-8.878-8.488-8.878c-4.428,0-8.078,3.903-8.49,8.878c-4.321,0.473-7.713,4.675-7.713,9.771
			C83.797,102.468,87.622,106.871,92.325,106.871z"/>
	</g>
</g>
</svg>
