<svg fill="#F9FAFA" xmlns="http://www.w3.org/2000/svg" xmlns:xlink="http://www.w3.org/1999/xlink" version="1.1" x="0px" y="0px" viewBox="0 0 96 96" enable-background="new 0 0 96 96" xml:space="preserve"><g><path d="M74,39c0-12.783-6.664-28.663-25.368-34.897L48,3.892l-0.632,0.211C28.664,10.337,22,26.217,22,39   c0,12.465,6.342,27.871,24,34.41V90c0,1.104,0.896,2,2,2s2-0.896,2-2V73.41C67.658,66.871,74,51.465,74,39z M50,69.122v-8.294   l11.414-11.414c0.781-0.781,0.781-2.047,0-2.828c-0.78-0.781-2.048-0.781-2.828,0L50,55.172V42.828l11.414-11.414   c0.781-0.781,0.781-2.047,0-2.828c-0.78-0.781-2.048-0.781-2.828,0L50,37.172V18c0-1.104-0.896-2-2-2s-2,0.896-2,2v19.21   l-8.594-8.497c-0.785-0.776-2.051-0.77-2.829,0.016c-0.776,0.786-0.769,2.052,0.016,2.829L46,42.835V55.21l-8.594-8.497   c-0.785-0.775-2.051-0.769-2.829,0.016c-0.776,0.786-0.769,2.052,0.016,2.829L46,60.835v8.287C27.497,61.506,26,44.286,26,39   c0-5.471,1.599-23.728,22-30.886C68.401,15.272,70,33.529,70,39C70,44.286,68.504,61.506,50,69.122z"></path></g></svg>