<svg fill="#F9FAFA" xmlns="http://www.w3.org/2000/svg" xmlns:xlink="http://www.w3.org/1999/xlink" version="1.1" x="0px" y="0px" viewBox="0 0 96 96" enable-background="new 0 0 96 96" xml:space="preserve"><g><path d="M74,30c0-1.104-0.896-2-2-2c-9.256,0-17.392,4.865-22,12.169V6c0-1.104-0.896-2-2-2s-2,0.896-2,2v16.169   C41.392,14.865,33.256,10,24,10c-1.104,0-2,0.896-2,2c0,13.663,10.596,24.89,24,25.915v20.254C41.392,50.865,33.256,46,24,46   c-1.104,0-2,0.896-2,2c0,13.663,10.596,24.89,24,25.915V90c0,1.104,0.896,2,2,2s2-0.896,2-2V55.915C63.404,54.89,74,43.663,74,30z    M26.099,14.099c10.459,0.995,18.807,9.342,19.802,19.802C35.441,32.906,27.094,24.559,26.099,14.099z M26.099,50.099   c10.459,0.995,18.807,9.342,19.802,19.801C35.441,68.906,27.094,60.559,26.099,50.099z M50.099,51.901   c0.995-10.459,9.342-18.807,19.801-19.802C68.906,42.559,60.559,50.906,50.099,51.901z"></path></g></svg>