<?xml version="1.0" encoding="utf-8"?>
<!-- Generator: Adobe Illustrator 21.1.0, SVG Export Plug-In . SVG Version: 6.00 Build 0)  -->
<svg version="1.1" id="Layer_1" xmlns="http://www.w3.org/2000/svg" xmlns:xlink="http://www.w3.org/1999/xlink" x="0px" y="0px"
	 viewBox="0 0 200 200" style="enable-background:new 0 0 200 200;" xml:space="preserve">
<style type="text/css">
	.st0{fill:#ACC1D1;}
	.st1{fill:#FAFAFA;}
</style>
<title>ig</title>
<g>
	<circle class="st0" cx="100" cy="104.4" r="22.5"/>
	<path class="st1" d="M100,115.4h-3.2c-1,0-2.1-0.1-3.1-0.3c-2.4-0.5-4.2-2.4-4.5-4.8c-0.2-1.1-0.2-2.2-0.2-3.3c0-2.1,0-4.3,0-6.4
		c0-1,0.1-2,0.4-3c0.5-2.1,2.3-3.8,4.5-4.1c0.8-0.2,1.7-0.2,2.5-0.2c2.4,0,4.9,0,7.3,0c1,0,1.9,0.1,2.9,0.3c2.2,0.5,3.8,2.3,4.2,4.5
		c0.2,1,0.3,2,0.2,3c0,2.1,0,4.2,0,6.3c0,1-0.1,2.1-0.3,3.1c-0.4,2.3-2.3,4.1-4.6,4.5c-1,0.2-1.9,0.3-2.9,0.2L100,115.4z
		 M90.9,104.4L90.9,104.4c0,0.8,0,1.6,0,2.4c0,1.1,0,2.2,0.2,3.3c0.2,1.5,1.3,2.7,2.8,3.1c0.7,0.2,1.4,0.3,2.1,0.2
		c2.6,0,5.2,0,7.9,0c0.6,0,1.2-0.1,1.7-0.2c1.5-0.2,2.8-1.3,3.1-2.8c0.2-0.7,0.3-1.4,0.2-2.2c0-2.6,0-5.1,0-7.7c0-0.7-0.1-1.3-0.2-2
		c-0.2-1.1-0.8-2-1.7-2.6c-0.7-0.4-1.5-0.6-2.4-0.6c-1.2,0-2.5,0-3.7,0c-1.6,0-3.2,0-4.9,0c-0.6,0-1.3,0.1-1.9,0.2
		c-1.2,0.2-2.2,1-2.7,2.2c-0.3,0.6-0.4,1.3-0.4,2C90.9,101.3,90.9,102.9,90.9,104.4z"/>
	<path class="st1" d="M94.4,104.4c0-3.1,2.5-5.6,5.6-5.6s5.6,2.5,5.6,5.6c0,3.1-2.5,5.6-5.6,5.6S94.4,107.5,94.4,104.4z M96.3,104.4
		c0,2,1.7,3.7,3.7,3.7c2,0,3.7-1.7,3.7-3.7c0-2-1.7-3.7-3.7-3.7c0,0,0,0,0,0C98,100.7,96.3,102.3,96.3,104.4
		C96.3,104.4,96.3,104.4,96.3,104.4L96.3,104.4z"/>
	<path class="st1" d="M105.9,99.8c-0.7,0-1.3-0.6-1.3-1.3c0-0.7,0.6-1.3,1.3-1.3c0.7,0,1.3,0.6,1.3,1.3
		C107.2,99.2,106.6,99.8,105.9,99.8z"/>
</g>
</svg>
