<?xml version="1.0" encoding="utf-8"?>
<!-- Generator: Adobe Illustrator 21.1.0, SVG Export Plug-In . SVG Version: 6.00 Build 0)  -->
<svg version="1.1" id="Layer_1" xmlns="http://www.w3.org/2000/svg" xmlns:xlink="http://www.w3.org/1999/xlink" x="0px" y="0px"
	 viewBox="0 0 200 200" style="enable-background:new 0 0 200 200;" xml:space="preserve">
<style type="text/css">
	.st0{fill:#ACC1D1;}
	.st1{fill:#FAFAFA;}
</style>
<title>yt</title>
<g>
	<circle class="st0" cx="100" cy="100" r="22.5"/>
	<path class="st1" d="M100,90.5c3,0.1,6,0.2,9,0.3c0.7,0,1.3,0.1,2,0.4c1.3,0.5,2.1,1.7,2.2,3.1c0.2,1.2,0.3,2.3,0.3,3.5
		c0.1,2.5,0,5-0.2,7.6c-0.1,0.7-0.3,1.4-0.6,2.1c-0.5,1.1-1.7,1.8-2.9,1.8c-5.1,0.3-10.2,0.4-15.3,0.2c-1.3,0-2.5-0.1-3.8-0.2
		c-1.9,0.1-3.6-1.4-3.7-3.3c-0.2-1-0.3-2-0.3-3c-0.2-2.9-0.1-5.8,0.3-8.6c0.1-1.4,0.9-2.5,2.2-3.1c0.6-0.2,1.3-0.3,2-0.4
		C94,90.7,97,90.6,100,90.5z M96.9,103.8l7.9-4.1l-7.9-4.1V103.8z"/>
</g>
</svg>
