<?xml version="1.0" encoding="utf-8"?>
<!-- Generator: Adobe Illustrator 16.0.0, SVG Export Plug-In . SVG Version: 6.00 Build 0)  -->
<!DOCTYPE svg PUBLIC "-//W3C//DTD SVG 1.1//EN" "http://www.w3.org/Graphics/SVG/1.1/DTD/svg11.dtd">
<svg version="1.1" id="Layer_1" xmlns="http://www.w3.org/2000/svg" xmlns:xlink="http://www.w3.org/1999/xlink" x="0px" y="0px"
	 width="80px" height="150px" viewBox="0 0 80 150" enable-background="new 0 0 80 150" xml:space="preserve">
<g>
	<g>
		<path fill="#F9FAFA" d="M67.711,99.876H41.348V78.809l4.198-4.199c0.604-0.606,0.604-1.587,0-2.193
			c-0.605-0.605-1.587-0.605-2.194,0l-2.004,2.005v-9.571l8.85-8.85c0.607-0.606,0.607-1.587,0-2.193
			c-0.604-0.607-1.587-0.607-2.192,0l-6.657,6.657V50.252c0-0.856-0.694-1.55-1.551-1.55c-0.856,0-1.55,0.694-1.55,1.55V69.77
			l-6.658-6.659c-0.604-0.604-1.587-0.604-2.192,0c-0.605,0.607-0.605,1.587,0,2.193l8.851,8.851v25.72H11.884
			c-0.856,0-1.551,0.693-1.551,1.551c0,0.855,0.695,1.55,1.551,1.55h55.827c0.855,0,1.55-0.694,1.55-1.55
			C69.261,100.569,68.566,99.876,67.711,99.876z"/>
		<path fill="#F9FAFA" d="M25.841,79.716h4.652c0.856,0,1.551-0.694,1.551-1.55c0-0.856-0.695-1.551-1.551-1.551h-4.652
			c-6.84,0-12.406-5.567-12.406-12.407c0-6.839,5.565-12.405,12.406-12.405c0.856,0,1.551-0.694,1.551-1.55
			c0-6.841,5.565-12.407,12.405-12.407c6.841,0,12.407,5.566,12.407,12.407c0,0.856,0.694,1.55,1.551,1.55
			c6.84,0,12.404,5.566,12.404,12.405c0,6.84-5.564,12.407-12.404,12.407h-4.652c-0.857,0-1.552,0.694-1.552,1.551
			c0,0.855,0.694,1.55,1.552,1.55h4.652c8.551,0,15.506-6.957,15.506-15.508c0-8.052-6.168-14.689-14.026-15.437
			c-0.748-7.859-7.386-14.027-15.438-14.027c-8.051,0-14.689,6.168-15.437,14.027c-7.859,0.747-14.027,7.385-14.027,15.437
			C10.333,72.759,17.291,79.716,25.841,79.716z"/>
	</g>
</g>
</svg>
