<svg fill="#F9FAFA" xmlns="http://www.w3.org/2000/svg" xmlns:xlink="http://www.w3.org/1999/xlink" version="1.1" x="0px" y="0px" viewBox="0 0 96 96" enable-background="new 0 0 96 96" xml:space="preserve"><g><g><path d="M73.732,57.608l-6-10.393c-0.554-0.956-1.776-1.286-2.732-0.732c-0.957,0.552-1.284,1.775-0.732,2.732l6,10.393    c1.213,2.1,1.478,4.049,0.729,5.348C70.246,66.255,68.425,67,66,67h-7.171l2.585-2.586c0.781-0.781,0.781-2.047,0-2.828    c-0.78-0.781-2.048-0.781-2.828,0l-6,6c-0.781,0.781-0.781,2.047,0,2.828l6,6C58.976,76.805,59.488,77,60,77    s1.024-0.195,1.414-0.586c0.781-0.781,0.781-2.047,0-2.828L58.828,71H66c3.95,0,6.954-1.437,8.46-4.044    C75.965,64.349,75.707,61.029,73.732,57.608z"></path><path d="M42,67H30c-2.425,0-4.246-0.745-4.996-2.044c-0.75-1.298-0.485-3.248,0.728-5.348l3.586-6.211l0.947,3.532    c0.286,1.067,1.382,1.703,2.449,1.414c1.067-0.286,1.7-1.382,1.414-2.449l-2.196-8.196c-0.286-1.067-1.384-1.704-2.449-1.414    l-8.196,2.196c-1.067,0.286-1.7,1.382-1.414,2.449c0.239,0.894,1.047,1.483,1.93,1.483c0.171,0,0.346-0.022,0.519-0.069    l3.533-0.947l-3.586,6.211c-1.975,3.421-2.233,6.741-0.728,9.348C23.046,69.564,26.05,71,30,71h12c1.104,0,2-0.896,2-2    S43.104,67,42,67z"></path><path d="M60.001,39.824c0.883,0,1.691-0.589,1.93-1.483l2.196-8.196c0.286-1.067-0.347-2.164-1.414-2.449    c-1.067-0.291-2.164,0.347-2.449,1.414l-0.947,3.533l-3.586-6.211c-1.975-3.42-4.721-5.304-7.732-5.304s-5.757,1.884-7.732,5.304    l-6,10.393c-0.552,0.957-0.225,2.18,0.732,2.732c0.315,0.182,0.659,0.269,0.998,0.269c0.691,0,1.363-0.359,1.734-1l6-10.393    c1.212-2.1,2.768-3.304,4.268-3.304s3.056,1.204,4.268,3.304l3.586,6.211l-3.533-0.946c-1.066-0.29-2.164,0.347-2.449,1.414    c-0.286,1.067,0.347,2.164,1.414,2.449l8.196,2.196C59.649,39.8,59.949,39.824,60.001,39.824z"></path></g></g></svg>