<?xml version="1.0" encoding="utf-8"?>
<!-- Generator: Adobe Illustrator 16.0.0, SVG Export Plug-In . SVG Version: 6.00 Build 0)  -->
<!DOCTYPE svg PUBLIC "-//W3C//DTD SVG 1.1//EN" "http://www.w3.org/Graphics/SVG/1.1/DTD/svg11.dtd">
<svg version="1.1" id="Layer_1" xmlns="http://www.w3.org/2000/svg" xmlns:xlink="http://www.w3.org/1999/xlink" x="0px" y="0px"
	 width="103.5px" height="90.5px" viewBox="0 0 103.5 90.5" enable-background="new 0 0 103.5 90.5" xml:space="preserve">
<path fill="#FAFAFA" stroke="#F9FAFA" stroke-width="2" stroke-miterlimit="10" d="M100.63,86.685c-0.296,0-0.593,0-0.926,0
	c-31.852,0-63.667,0-95.519,0c-0.074,0-0.111,0-0.185,0c0-0.036,0-0.073,0-0.11c0.111-0.186,0.259-0.371,0.371-0.556
	C20.185,58.649,36,31.278,51.815,3.907c0.148-0.259,0.296-0.481,0.481-0.814c0.148,0.259,0.296,0.444,0.407,0.666
	c15.852,27.408,31.704,54.815,47.556,82.26c0.111,0.185,0.259,0.37,0.371,0.556C100.63,86.612,100.63,86.649,100.63,86.685z
	 M52.296,5.24C41.852,23.352,31.444,41.315,21.037,59.352c20.889,0,41.667,0,62.519,0C73.148,41.278,62.741,23.315,52.296,5.24z
	 M98.667,85.537c-0.111-0.223-0.185-0.37-0.259-0.519c-4.629-8.037-9.296-16.074-13.926-24.074c-0.222-0.37-0.444-0.444-0.815-0.444
	c-10.148,0-20.259,0-30.407,0c-0.222,0-0.407,0.037-0.667,0.037c0,8.37,0,16.666,0,25C67.963,85.537,83.259,85.537,98.667,85.537z
	 M51.444,85.574c0-8.371,0-16.704,0-25.074c-0.259,0-0.444,0-0.629,0c-9.963,0-19.889,0-29.852,0c-0.444,0-0.667,0.148-0.889,0.519
	c-4.593,8-9.222,15.963-13.815,23.926c-0.111,0.186-0.185,0.37-0.333,0.593C21.148,85.574,36.259,85.574,51.444,85.574z"/>
</svg>
